# Alias OBJ Model File
# Exported from SketchUp, (c) 2000-2006 Google, Inc.
# File units = meters

mtllib Box.mtl

g Mesh1 Model

usemtl FrontColor
v 0 0 -1.2192
vt 0 48
vn 0 -1 -0
v -1.2192 0 -0
vt 48 0
v -1.2192 0 -1.2192
vt 48 48
f 1/1/1 2/2/1 3/3/1

v 0 0 -0
vt 0 0
f 2/2/1 1/1/1 4/4/1

usemtl Bottom
vn 0 -0.0254 -0
vt 1 0
vt 0 1
f 4/4/2 2/5/2 1/6/2

usemtl FrontColor
v 0 1.2192 -0
vn 0 0 1
vt -48 0
f 5/1/3 2/7/3 4/4/3

v -1.2192 1.2192 -0
vt -48 48
f 2/7/3 5/1/3 6/8/3

vn 0 1 -0
v -1.2192 1.2192 -1.2192
f 5/4/4 7/8/4 6/7/4

v 0 1.2192 -1.2192
f 7/8/4 5/4/4 8/1/4

usemtl Top
vn 0 0.0254 -0
f 6/4/5 5/5/5 7/6/5

usemtl Left
vt 1 1
vn 0 0 0.0254
f 5/9/6 6/6/6 4/5/6

f 2/4/6 4/5/6 6/6/6

usemtl FrontColor
vn -1 0 -0
f 7/8/7 2/4/7 6/1/7

f 2/4/7 7/8/7 3/7/7

usemtl Back
vn -0.0254 0 -0
f 3/4/8 2/5/8 7/6/8

usemtl Bottom
f 3/9/2 1/6/2 2/5/2

usemtl FrontColor
vn 0 0 -1
f 7/3/9 1/4/9 3/2/9

f 1/4/9 7/3/9 8/1/9

usemtl Right
vn 0 0 -0.0254
f 7/9/10 8/6/10 3/5/10

usemtl Top
f 8/9/5 7/6/5 5/5/5

usemtl FrontColor
vn 1 0 -0
f 5/1/11 1/2/11 8/3/11

f 1/2/11 5/1/11 4/4/11

usemtl Front
vn 0.0254 0 -0
f 4/4/12 1/5/12 5/6/12

f 8/9/12 5/6/12 1/5/12

usemtl Right
f 1/4/10 3/5/10 8/6/10

usemtl Back
f 6/9/8 7/6/8 2/5/8

