# Alias OBJ Model File
# Exported from SketchUp, (c) 2000-2006 Google, Inc.
# File units = meters

mtllib Rug.mtl

g Mesh1 Model

usemtl FrontColor
v -1.50978 0 -0.207694
vt 59.4402 8.17692
vn 0 -1 -0
v -1.41136 0 0.575022
vt 55.5652 -22.6387
v -1.51209 0 0.190143
vt 59.5312 -7.48596
f 1/1/1 2/2/1 3/3/1

v -1.40458 0 -0.591377
vt 55.2985 23.2826
f 2/2/1 1/1/1 4/4/1

usemtl Carpet_Plush_Forest
vt 4.96093 -0.62383
vn -0 1 0
vt 4.63043 -1.88656
vt 4.95335 0.68141
f 3/5/2 2/6/2 1/7/2

vt 4.60821 1.94021
f 4/8/2 1/7/2 2/6/2

usemtl FrontColor
v -1.21444 0 0.920715
vt 47.8125 -36.2486
f 2/2/1 4/4/1 5/9/1

usemtl Carpet_Plush_Forest
vt 3.98438 -3.02072
f 5/10/2 4/8/2 2/6/2

usemtl FrontColor
v -1.20366 0 -0.934759
vt 47.3883 36.8015
f 5/9/1 4/4/1 6/11/1

usemtl Carpet_Plush_Forest
vt 3.94902 3.06679
f 6/12/2 4/8/2 5/10/2

usemtl FrontColor
v -0.934759 0 1.20366
vt 36.8015 -47.3883
f 5/9/1 6/11/1 7/13/1

usemtl Carpet_Plush_Forest
vt 3.06679 -3.94902
f 7/14/2 6/12/2 5/10/2

usemtl FrontColor
v -0.920715 0 -1.21444
vt 36.2486 47.8125
f 7/13/1 6/11/1 8/15/1

usemtl Carpet_Plush_Forest
vt 3.02072 3.98438
f 8/16/2 6/12/2 7/14/2

usemtl FrontColor
v -0.591377 0 1.40458
vt 23.2826 -55.2985
f 7/13/1 8/15/1 9/17/1

usemtl Carpet_Plush_Forest
vt 1.94021 -4.60821
f 9/18/2 8/16/2 7/14/2

usemtl FrontColor
v -0.575022 0 -1.41136
vt 22.6387 55.5652
f 9/17/1 8/15/1 10/19/1

usemtl Carpet_Plush_Forest
vt 1.88656 4.63043
f 10/20/2 8/16/2 9/18/2

usemtl FrontColor
v -0.207694 0 1.50978
vt 8.17692 -59.4402
f 9/17/1 10/19/1 11/21/1

usemtl Carpet_Plush_Forest
vt 0.68141 -4.95335
f 11/22/2 10/20/2 9/18/2

usemtl FrontColor
v -0.190143 0 -1.51209
vt 7.48596 59.5312
f 11/21/1 10/19/1 12/23/1

usemtl Carpet_Plush_Forest
vt 0.62383 4.96093
f 12/24/2 10/20/2 11/22/2

usemtl FrontColor
v 0.190143 0 1.51209
vt -7.48596 -59.5312
f 11/21/1 12/23/1 13/25/1

usemtl Carpet_Plush_Forest
vt -0.62383 -4.96093
f 13/26/2 12/24/2 11/22/2

usemtl FrontColor
v 0.207694 0 -1.50978
vt -8.17692 59.4402
f 13/25/1 12/23/1 14/27/1

usemtl Carpet_Plush_Forest
vt -0.68141 4.95335
f 14/28/2 12/24/2 13/26/2

usemtl FrontColor
v 0.575022 0 1.41136
vt -22.6387 -55.5652
f 13/25/1 14/27/1 15/29/1

usemtl Carpet_Plush_Forest
vt -1.88656 -4.63043
f 15/30/2 14/28/2 13/26/2

usemtl FrontColor
v 0.591377 0 -1.40458
vt -23.2826 55.2985
f 15/29/1 14/27/1 16/31/1

usemtl Carpet_Plush_Forest
vt -1.94021 4.60821
f 16/32/2 14/28/2 15/30/2

usemtl FrontColor
v 0.920715 0 1.21444
vt -36.2486 -47.8125
f 15/29/1 16/31/1 17/33/1

usemtl Carpet_Plush_Forest
vt -3.02072 -3.98438
f 17/34/2 16/32/2 15/30/2

usemtl FrontColor
v 0.934759 0 -1.20366
vt -36.8015 47.3883
f 17/33/1 16/31/1 18/35/1

usemtl Carpet_Plush_Forest
vt -3.06679 3.94902
f 18/36/2 16/32/2 17/34/2

usemtl FrontColor
v 1.20366 0 0.934759
vt -47.3883 -36.8015
f 17/33/1 18/35/1 19/37/1

usemtl Carpet_Plush_Forest
vt -3.94902 -3.06679
f 19/38/2 18/36/2 17/34/2

usemtl FrontColor
v 1.21444 0 -0.920715
vt -47.8125 36.2486
f 19/37/1 18/35/1 20/39/1

usemtl Carpet_Plush_Forest
vt -3.98438 3.02072
f 20/40/2 18/36/2 19/38/2

usemtl FrontColor
v 1.40458 0 0.591377
vt -55.2985 -23.2826
f 19/37/1 20/39/1 21/41/1

usemtl Carpet_Plush_Forest
vt -4.60821 -1.94021
f 21/42/2 20/40/2 19/38/2

usemtl FrontColor
v 1.41136 0 -0.575022
vt -55.5652 22.6387
f 21/41/1 20/39/1 22/43/1

usemtl Carpet_Plush_Forest
vt -4.63043 1.88656
f 22/44/2 20/40/2 21/42/2

usemtl FrontColor
v 1.50978 0 0.207694
vt -59.4402 -8.17692
f 21/41/1 22/43/1 23/45/1

usemtl Carpet_Plush_Forest
vt -4.95335 -0.68141
f 23/46/2 22/44/2 21/42/2

usemtl FrontColor
v 1.51209 0 -0.190143
vt -59.5312 7.48596
f 23/45/1 22/43/1 24/47/1

usemtl Carpet_Plush_Forest
vt -4.96093 0.62383
f 24/48/2 22/44/2 23/46/2

